<svg xmlns="http://www.w3.org/2000/svg" width="1280" height="560" viewBox="0 0 1280 560">
    <defs>
        <filter id="rough-paper">
            <feTurbulence type="fractalNoise" baseFrequency="0.04" numOctaves="5" result="noise"/>
            <feDisplacementMap in="SourceGraphic" in2="noise" scale="3" xChannelSelector="R" yChannelSelector="G"/>
        </filter>
        <marker id="arrow" markerWidth="12" markerHeight="8" refX="10" refY="4" orient="auto" markerUnits="strokeWidth">
            <path d="M0,0 L12,4 L0,8 z" fill="#555" stroke-linecap="round"/>
        </marker>
    </defs>
    <rect x="0" y="0" width="1280" height="560" fill="#faf9f6" filter="url(#rough-paper)"/>
    <text x="72" y="84" font-family="'Segoe UI', Arial, sans-serif" font-size="40" fill="#1a1a1a" font-weight="700">Project Workflow Sketch</text>
    <text x="72" y="124" font-family="'Segoe UI', Arial, sans-serif" font-size="20" fill="#555">Intake to delivery — one controlled feedback loop.</text>

    <path d="M80,186 C82,183 388,190 390,186 C392,182 394,298 390,302 C386,306 82,310 78,306 C74,302 76,190 80,186 Z" fill="#fff" stroke="#333" stroke-width="2" stroke-linecap="round" filter="url(#rough-paper)"/>
    <text x="160" y="236" font-family="'Segoe UI', Arial, sans-serif" font-size="28" fill="#111" font-weight="600">Input &amp; Intake</text>
    <text x="100" y="274" font-family="'Segoe UI', Arial, sans-serif" font-size="18" fill="#4b5563">Evidence, notes, open questions</text>

    <path d="M488,186 C490,183 796,190 798,186 C800,182 802,298 798,302 C794,306 490,310 486,306 C482,302 484,190 488,186 Z" fill="#fff" stroke="#333" stroke-width="2" stroke-linecap="round" filter="url(#rough-paper)"/>
    <text x="576" y="236" font-family="'Segoe UI', Arial, sans-serif" font-size="28" fill="#111" font-weight="600">Planning</text>
    <text x="510" y="274" font-family="'Segoe UI', Arial, sans-serif" font-size="18" fill="#4b5563">Scope, owners, quality gates</text>

    <path d="M896,186 C898,183 1196,190 1198,186 C1200,182 1202,298 1198,302 C1194,306 898,310 894,306 C890,302 892,190 896,186 Z" fill="#fff" stroke="#333" stroke-width="2" stroke-linecap="round" filter="url(#rough-paper)"/>
    <text x="986" y="236" font-family="'Segoe UI', Arial, sans-serif" font-size="28" fill="#111" font-weight="600">Delivery</text>
    <text x="940" y="274" font-family="'Segoe UI', Arial, sans-serif" font-size="18" fill="#4b5563">Tickets, PRs, review loops</text>

    <path d="M393,250 C420,248 462,250 484,250" fill="none" stroke="#555" stroke-width="3" stroke-linecap="round" marker-end="url(#arrow)" filter="url(#rough-paper)"/>
    <path d="M800,250 C828,248 868,250 892,250" fill="none" stroke="#555" stroke-width="3" stroke-linecap="round" marker-end="url(#arrow)" filter="url(#rough-paper)"/>
    <path d="M1048,320 C980,430 528,440 420,352" fill="none" stroke="#d97706" stroke-width="3" stroke-dasharray="9 7" stroke-linecap="round" marker-end="url(#arrow)" filter="url(#rough-paper)"/>
    <text x="526" y="500" font-family="'Segoe UI', Arial, sans-serif" font-size="20" fill="#9a3412" font-weight="600">Feedback and clarification loop</text>
</svg>
